{"title":"Dream House 2011 READNFO R5 LiNE XViD DTRG","uid":6889598,"size":843507870,"categoryP":"video","categoryS":"movies","magnet":"?xt=urn:btih:d82a6bb1672713223f17c65de56661428c6b4f37&amp;dn=Dream+House+2011+READNFO+R5+LiNE+XViD+DTRG&amp;tr=udp%3A%2F%2Ftracker.openbittorrent.com%3A80&amp;tr=udp%3A%2F%2Fopen.demonii.com%3A1337&amp;tr=udp%3A%2F%2Ftracker.coppersurfer.tk%3A6969&amp;tr=udp%3A%2F%2Fexodus.desync.com%3A6969","seeders":1,"leechers":0,"uploader":"HeroMaster","files":-1,"time":1323960917,"description":":::::: DTRG Presents :::::::\n\n\n:::: Dream House 2011 READNFO R5 LiNE XViD ::::\n\n\n::Information::\n\n\nFormat : AVI\nFormat/Info : Audio Video Interleave\nFile size : 800 MiB\nDuration : 1h 21mn\nOverall bit rate : 1 379 Kbps\nWriting application : VirtualDubMod 1.5.10.2 (build 2540/release)\nWriting library : VirtualDubMod build 2540/release\n\nVideo\nID : 0\nFormat : MPEG-4 Visual\nFormat profile : Advanced Simple@L5\nFormat settings, BVOP : 1\nFormat settings, QPel : No\nFormat settings, GMC : No warppoints\nFormat settings, Matrix : Default (H.263)\nMuxing mode : Packed bitstream\nCodec ID : XVID\nCodec ID/Hint : XviD\nDuration : 1h 21mn\nBit rate : 1 242 Kbps\nWidth : 624 pixels\nHeight : 262 pixels\nDisplay aspect ratio : 2.40:1\nFrame rate : 25.000 fps\nColor space : YUV\nChroma subsampling : 4:2:0\nBit depth : 8 bits\nScan type : Progressive\nCompression mode : Lossy\nBits/(Pixel*Frame) : 0.304\nStream size : 720 MiB (90%)\nWriting library : XviD 64\n\nAudio\nID : 1\nFormat : MPEG Audio\nFormat version : Version 1\nFormat profile : Layer 3\nCodec ID : 55\nCodec ID/Hint : MP3\nDuration : 1h 21mn\nBit rate mode : Constant\nBit rate : 128 Kbps\nChannel(s) : 2 channels\nSampling rate : 44.1 KHz\nCompression mode : Lossy\nStream size : 74.2 MiB (9%)\nAlignment : Split accross interleaves\nInterleave, duration : 40 ms (1.00 video frame)\nInterleave, preload duration : 500 ms\n\n &lt;a href=&quot;\nhttp://www.imdb.com/title/tt1462041/&quot; rel=&quot;nofollow&quot; target=&quot;_NEW&quot;&gt;\nhttp://www.imdb.com/title/tt1462041/&lt;/a&gt;\n\n\n::Storyline::\n\n\nSome say that all houses have memories. For one man, his home is\nthe place he would kill to forget. A family unknowingly moves into\na home where several grisly murders were committed...only to find\nthemselves the killer's next target. \n\n\n::More Information::\n\n\nSource Used\n\nRussian DVD5 ......Thanks\n\nAudio.................own\n\nBeen way too busy so bit late with this one so went with a smaller sized rip........Any oos? ...maybe you gonna have to down to find out\n\nSample included ........check it out\n\nEnjoy\n\nGreetz to EMBER,ETRG,BHRG,FYA,CreWSaDe,RemixHD.......and maybe many more\n\nOne last thing would like to welcome baker92 to DTRG ...............Look \nforward to working with you bro !\n\n\n\n::Poster::\n\n &lt;a href=&quot;\nhttp://i.imgur.com/Xnu4L.jpg&quot; rel=&quot;nofollow&quot; target=&quot;_NEW&quot;&gt;\nhttp://i.imgur.com/Xnu4L.jpg&lt;/a&gt;\n\n\n::Screens:\n\n &lt;a href=&quot;\nhttp://i.imgur.com/S5pJg.png&quot; rel=&quot;nofollow&quot; target=&quot;_NEW&quot;&gt;\nhttp://i.imgur.com/S5pJg.png&lt;/a&gt;\n\n &lt;a href=&quot;\nhttp://i.imgur.com/LUanV.png&quot; rel=&quot;nofollow&quot; target=&quot;_NEW&quot;&gt;\nhttp://i.imgur.com/LUanV.png&lt;/a&gt;\n\n &lt;a href=&quot;\nhttp://i.imgur.com/39W1U.png&quot; rel=&quot;nofollow&quot; target=&quot;_NEW&quot;&gt;\nhttp://i.imgur.com/39W1U.png&lt;/a&gt;\n\n\nENJOY!","torrent":{"xt":"urn:btih:d82a6bb1672713223f17c65de56661428c6b4f37","amp;dn":"Dream+House+2011+READNFO+R5+LiNE+XViD+DTRG","amp;tr":["udp%3A%2F%2Ftracker.openbittorrent.com%3A80","udp%3A%2F%2Fopen.demonii.com%3A1337","udp%3A%2F%2Ftracker.coppersurfer.tk%3A6969","udp%3A%2F%2Fexodus.desync.com%3A6969"],"infoHash":"d82a6bb1672713223f17c65de56661428c6b4f37","infoHashBuffer":{"type":"Buffer","data":[216,42,107,177,103,39,19,34,63,23,198,93,229,102,97,66,140,107,79,55]},"announce":[],"urlList":[]}}